<svg width="64.000000" height="64.000000" viewBox="0 0 64 64" fill="none" xmlns="http://www.w3.org/2000/svg" xmlns:xlink="http://www.w3.org/1999/xlink">
	<desc>
			Created with Pixso.
	</desc>
	<defs>
		<clipPath id="clip3_168">
			<rect id="beans" rx="0.000000" width="63.500000" height="63.500000" transform="translate(0.250000 0.250000)" fill="white" fill-opacity="0"/>
		</clipPath>
	</defs>
	<rect id="beans" rx="0.000000" width="63.500000" height="63.500000" transform="translate(0.250000 0.250000)" fill="#FFFFFF" fill-opacity="0"/>
	<g clip-path="url(#clip3_168)">
		<path id="Vector" d="M25.38 3.33C24.26 3.33 23.17 3.49 22.1 3.81C21.04 4.13 20.07 4.58 19.19 5.17C20.15 7.62 22.62 10.73 25.47 13.39C28.45 16.17 31.87 18.53 34.08 19.59L34.1 19.6L34.13 19.61C36.15 20.66 37.59 22.3 38.42 24.11C38.95 25.27 39.26 26.49 39.45 27.73C41.07 26.46 42.78 25.45 44.52 24.71C44.39 22.42 43.89 20.02 42.97 17.62C41.05 12.58 37.69 8.52 33.88 6.05C31.15 4.27 28.22 3.31 25.38 3.33ZM15.82 8.61C15.19 9.61 14.66 10.71 14.26 11.91C12.93 15.92 13.04 20.95 14.96 25.99C16.13 29.04 17.82 31.73 19.82 33.93C21.78 34.52 23.73 35.43 25.56 36.66C26.97 37.61 28.23 38.7 29.32 39.89C29.67 39.98 30.03 40.05 30.38 40.11C31.06 38.34 31.94 36.58 33.02 34.88C33.68 33.85 34.4 32.85 35.18 31.91C35.18 31.26 35.18 30.63 35.15 30.03C35.06 28.41 34.8 27.02 34.33 25.98C33.85 24.94 33.23 24.21 32.07 23.62L32.12 23.64C29.26 22.26 25.69 19.75 22.4 16.69C19.79 14.25 17.37 11.53 15.82 8.61ZM50.79 25.58C49.11 25.59 47.32 25.99 45.51 26.74C41.66 28.34 37.79 31.58 34.92 36.09C33.46 38.39 32.41 40.79 31.75 43.15C34.32 47.46 34.95 52.41 33.1 56.57C33.4 57 33.73 57.4 34.1 57.77C36.8 55.44 39.92 53.5 42.14 51.52C43.35 50.43 44.27 49.36 44.78 48.33C45.29 47.31 45.46 46.37 45.2 45.09L45.18 45.02L45.17 44.94C44.16 37.66 45.93 33.38 48.5 30.76C50.57 28.65 52.63 27.54 54.05 26.08C53.03 25.73 51.93 25.57 50.79 25.58ZM57.89 28.57C55.81 31.16 53.25 32.35 51.71 33.91C49.95 35.7 48.74 37.86 49.62 44.3C50.05 46.49 49.68 48.59 48.8 50.34C47.92 52.12 46.59 53.57 45.14 54.87C42.94 56.84 40.4 58.53 38.28 60.18C40.69 60.8 43.43 60.5 46.22 59.34C50.08 57.74 53.95 54.5 56.81 49.99C59.67 45.49 60.97 40.6 60.78 36.43C60.63 33.25 59.65 30.51 57.89 28.57L57.89 28.57ZM49.62 44.3C49.62 44.26 49.61 44.22 49.6 44.18L49.63 44.33C49.63 44.32 49.63 44.31 49.62 44.3L49.62 44.3ZM14.6 35.37C12.3 35.35 10.13 35.85 8.31 36.85C8.32 36.85 8.34 36.85 8.35 36.85C9.43 36.89 10.78 36.76 12.34 36.97C13.9 37.18 15.73 37.89 17.11 39.46C18.49 41.02 19.44 43.24 20.1 46.43L20.12 46.5L20.13 46.58C20.44 48.8 21.85 50.09 24.31 51.29C26.4 52.32 29.09 53.06 31.65 53.8C32.79 48.68 30.08 42.43 24.3 38.53C21.18 36.42 17.76 35.4 14.6 35.37L14.6 35.37ZM4.46 40.55C1.3 45.99 3.84 53.98 10.73 58.63C17.5 63.2 25.7 62.66 29.64 57.91C27.34 57.26 24.73 56.51 22.33 55.34C19.23 53.82 16.28 51.27 15.69 47.31C15.12 44.6 14.37 43.15 13.74 42.44C13.11 41.72 12.62 41.55 11.73 41.43C10.85 41.31 9.63 41.4 8.19 41.34C7.07 41.31 5.75 41.14 4.46 40.55L4.46 40.55ZM15.69 47.31C15.69 47.32 15.69 47.33 15.7 47.34L15.67 47.19C15.68 47.23 15.68 47.27 15.69 47.31L15.69 47.31Z" fill="#A98764" fill-opacity="1.000000" fill-rule="nonzero"/>
	</g>
</svg>
