<svg width="22.000000" height="22.000000" viewBox="0 0 22 22" fill="none" xmlns="http://www.w3.org/2000/svg" xmlns:xlink="http://www.w3.org/1999/xlink">
	<desc>
			Created with Pixso.
	</desc>
	<defs/>
	<circle id="Ellipse 1" cx="11.000000" cy="11.000000" r="10.500000" stroke="#C8A077" stroke-opacity="1.000000" stroke-width="1.000000"/>
	<path id="Vector" d="M6.27 9.97C6.77 9.33 7.75 9.33 9.71 9.33L12.28 9.33C14.24 9.33 15.22 9.33 15.72 9.97C16.22 10.61 15.98 11.56 15.5 13.47C15.2 14.68 15.05 15.29 14.6 15.64C14.15 16 13.52 16 12.28 16L9.71 16C8.47 16 7.84 16 7.39 15.64C6.94 15.29 6.79 14.68 6.49 13.47C6.01 11.56 5.77 10.61 6.27 9.97Z" stroke="#C8A077" stroke-opacity="1.000000" stroke-width="1.000000"/>
	<g opacity="0.500000">
		<path id="Vector" d="M15.15 9.61L14.76 8.16C14.61 7.6 14.53 7.32 14.37 7.11C14.22 6.9 14.01 6.74 13.77 6.65C13.52 6.55 13.23 6.55 12.66 6.55M6.84 9.61L7.23 8.16C7.38 7.6 7.46 7.32 7.62 7.11C7.77 6.9 7.98 6.74 8.22 6.65C8.47 6.55 8.76 6.55 9.33 6.55" stroke="#C8A077" stroke-opacity="1.000000" stroke-width="1.000000"/>
	</g>
	<path id="Vector" d="M9.49 6.16C9.6 6.05 9.74 6 9.89 6L12.1 6C12.25 6 12.39 6.05 12.5 6.16C12.6 6.26 12.66 6.4 12.66 6.55C12.66 6.7 12.6 6.84 12.5 6.94C12.39 7.05 12.25 7.11 12.1 7.11L9.89 7.11C9.74 7.11 9.6 7.05 9.49 6.94C9.39 6.84 9.33 6.7 9.33 6.55C9.33 6.4 9.39 6.26 9.49 6.16Z" stroke="#C8A077" stroke-opacity="1.000000" stroke-width="1.000000"/>
	<g opacity="0.500000">
		<path id="Vector" d="M8.78 11.55L8.78 13.77M13.21 11.55L13.21 13.77M11 11.55L11 13.77" stroke="#C8A077" stroke-opacity="1.000000" stroke-width="1.000000" stroke-linejoin="round" stroke-linecap="round"/>
	</g>
</svg>
