<svg width="44.000000" height="44.000000" viewBox="0 0 44 44" fill="none" xmlns="http://www.w3.org/2000/svg" xmlns:xlink="http://www.w3.org/1999/xlink">
	<desc>
			Created with Pixso.
	</desc>
	<defs/>
	<circle id="Ellipse 1" cx="22.000000" cy="22.000000" r="21.500000" stroke="#E2D9C8" stroke-opacity="1.000000" stroke-width="1.000000"/>
	<path id="Vector" d="M12.06 19.84C13.11 18.5 15.17 18.5 19.3 18.5L24.69 18.5C28.82 18.5 30.88 18.5 31.93 19.84C32.98 21.19 32.48 23.19 31.48 27.19C30.84 29.73 30.52 31 29.58 31.74C28.63 32.48 27.32 32.48 24.69 32.48L19.3 32.48C16.67 32.48 15.36 32.48 14.41 31.74C13.47 31 13.15 29.73 12.51 27.19C11.51 23.19 11.01 21.19 12.06 19.84Z" stroke="#E2D9C8" stroke-opacity="1.000000" stroke-width="1.000000"/>
	<g opacity="0.500000">
		<path id="Vector" d="M30.74 19.08L29.91 16.05C29.59 14.87 29.43 14.29 29.1 13.85C28.78 13.41 28.33 13.07 27.82 12.87C27.31 12.67 26.7 12.67 25.49 12.67M13.25 19.08L14.08 16.05C14.4 14.87 14.56 14.29 14.89 13.85C15.21 13.41 15.66 13.07 16.17 12.87C16.68 12.67 17.29 12.67 18.5 12.67" stroke="#C8A077" stroke-opacity="1.000000" stroke-width="1.000000"/>
	</g>
	<path id="Vector" d="M18.84 11.85C19.06 11.63 19.35 11.51 19.66 11.51L24.33 11.51C24.64 11.51 24.93 11.63 25.15 11.85C25.37 12.07 25.49 12.36 25.49 12.67C25.49 12.98 25.37 13.28 25.15 13.5C24.93 13.71 24.64 13.84 24.33 13.84L19.66 13.84C19.35 13.84 19.06 13.71 18.84 13.5C18.62 13.28 18.5 12.98 18.5 12.67C18.5 12.36 18.62 12.07 18.84 11.85Z" stroke="#E2D9C8" stroke-opacity="1.000000" stroke-width="1.000000"/>
	<g opacity="0.500000">
		<path id="Vector" d="M17.33 23.16L17.33 27.82M26.66 23.16L26.66 27.82M21.99 23.16L21.99 27.82" stroke="#C8A077" stroke-opacity="1.000000" stroke-width="1.000000" stroke-linejoin="round" stroke-linecap="round"/>
	</g>
</svg>
