<svg width="64.000000" height="64.000000" viewBox="0 0 64 64" fill="none" xmlns="http://www.w3.org/2000/svg" xmlns:xlink="http://www.w3.org/1999/xlink">
	<desc>
			Created with Pixso.
	</desc>
	<defs>
		<clipPath id="clip3_136">
			<rect id="coffe" rx="0.000000" width="63.000000" height="63.000000" transform="translate(0.500000 0.500000)" fill="white" fill-opacity="0"/>
		</clipPath>
	</defs>
	<rect id="coffe" rx="0.000000" width="63.000000" height="63.000000" transform="translate(0.500000 0.500000)" fill="#FFFFFF" fill-opacity="0"/>
	<g clip-path="url(#clip3_136)">
		<path id="Vector" d="M26.22 11.45C26.27 11.76 26.12 12.01 25.61 12.27C24.58 11.85 23.46 11.7 22.35 11.81C21.08 11.91 20.01 12.32 20.15 13.19C20.35 14.05 21.58 14.56 23.77 14.36C29.12 13.9 29.07 10.28 36.91 9.57C43.02 9.01 46.44 10.89 46.89 13.19C47.25 14.97 45.77 16.7 41.34 17.06C37.42 17.41 35.13 16.34 34.92 15.28C34.82 14.72 35.12 13.9 37.01 13.7C37.21 14.56 38.29 15.48 40.83 15.22C42.68 15.07 44.2 14.4 44 13.4C43.8 12.33 41.86 11.72 38.8 11.97C32.58 12.53 31.05 15.94 25.76 16.4C22 16.75 18.94 15.37 18.53 13.34C18.38 12.57 18.38 10.79 22.35 10.43C24.39 10.28 26.02 10.63 26.22 11.45ZM33.66 20.98C28.06 21.02 22.48 20.49 17 19.4C12.47 18.28 10.08 17.05 10.08 15.48C10.08 14.81 10.38 14.25 11.3 13.59C8.45 14.71 6.92 15.63 6.92 17.06C7.07 18.64 9.62 20.21 14.81 21.44C20.95 22.81 27.22 23.44 33.51 23.32C39.79 23.45 46.06 22.81 52.2 21.44C57.4 20.21 59.89 18.58 59.89 17.06C59.89 15.94 58.77 14.86 56.73 14.06C56.97 14.2 57.16 14.4 57.31 14.64C57.45 14.88 57.53 15.15 57.55 15.43C57.55 17.01 55.2 18.28 50.47 19.35C44.94 20.5 39.3 21.04 33.66 20.98L33.66 20.98Z" fill="#A98764" fill-opacity="1.000000" fill-rule="nonzero"/>
		<path id="Vector" d="M6.36 32.74C4.71 34.78 3.87 37.36 4.02 39.98C4.1 41.17 4.44 42.34 5.01 43.39C5.58 44.44 6.37 45.36 7.33 46.09C8.26 46.84 9.34 47.37 10.51 47.64C11.67 47.91 12.88 47.92 14.05 47.67C15.07 47.42 16.07 47.09 17.05 46.7C15.03 46.7 13.08 45.97 11.55 44.66C10.61 44.01 9.82 43.17 9.22 42.2C8.63 41.22 8.24 40.14 8.08 39.01C7.86 37.97 7.85 36.91 8.06 35.87C8.27 34.84 8.7 33.86 9.31 33C9.98 32.15 10.81 31.45 11.75 30.93C12.7 30.42 13.74 30.1 14.81 30C17.11 29.83 19.39 30.5 21.23 31.88C20.71 31.25 20.13 30.67 19.5 30.15C18.52 29.42 17.39 28.91 16.19 28.67C14.99 28.44 13.76 28.47 12.57 28.77C10.08 29.29 7.87 30.7 6.36 32.74ZM52.41 25.36C46.26 26.68 39.99 27.31 33.71 27.24C27.38 27.29 21.06 26.66 14.86 25.36C10.48 24.24 8.14 23.01 7.33 21.74C8.15 27.1 9.91 32.27 12.53 37.02C14.41 39.88 16.29 42.37 18.18 45.07C18.95 46.57 19.54 48.16 19.91 49.81C21.18 51.54 23.02 52.77 25.11 53.27C27.79 54.24 30.63 54.65 33.47 54.5L33.77 54.5C36.69 54.62 39.6 54.21 42.37 53.27C44.38 52.69 46.15 51.48 47.41 49.81L47.57 49.81C47.88 48.17 48.41 46.57 49.15 45.07C51.03 42.37 52.92 39.87 54.8 37.02C57.36 32.25 59.12 27.09 60 21.74C58.98 23.17 56.63 24.4 52.41 25.36Z" fill="#A98764" fill-opacity="1.000000" fill-rule="nonzero"/>
	</g>
</svg>
