<svg width="64.000000" height="64.000000" viewBox="0 0 64 64" fill="none" xmlns="http://www.w3.org/2000/svg" xmlns:xlink="http://www.w3.org/1999/xlink">
	<desc>
			Created with Pixso.
	</desc>
	<defs>
		<clipPath id="clip3_177">
			<rect id="croissant" rx="0.000000" width="63.500000" height="63.500000" transform="translate(0.250000 0.250000)" fill="white" fill-opacity="0"/>
		</clipPath>
	</defs>
	<rect id="croissant" rx="0.000000" width="63.500000" height="63.500000" transform="translate(0.250000 0.250000)" fill="#FFFFFF" fill-opacity="0"/>
	<g clip-path="url(#clip3_177)">
		<path id="Vector" d="M53.41 5.07C53.07 5.07 52.74 5.09 52.41 5.12C51.56 5.21 50.74 5.31 49.93 5.4C48.54 3.29 46.4 2 44.22 2C43.36 2 42.5 2.19 41.68 2.62C40.78 3.09 39.89 3.59 39.01 4.09C37.79 3.29 36.27 2.84 34.61 2.84C32.88 2.84 31.01 3.32 29.24 4.38C27.71 5.29 26.22 6.27 24.76 7.29C24.07 6.14 23.32 5.44 22.55 5.44C22.44 5.44 22.33 5.45 22.21 5.48C16.55 7 8.03 15.52 6.5 21.18C6.2 22.31 6.56 22.79 7.41 22.97C7.27 23.59 7.34 24.03 7.57 24.34C6.44 25.93 5.38 27.55 4.38 29.22C2.66 32.1 2.47 35.22 3.4 37.63C3.44 38.31 3.56 38.97 3.75 39.59C3.37 40.28 2.98 40.96 2.62 41.65C1.62 43.57 1.87 45.74 3.02 47.54C3.35 48.87 4.1 50.16 5.2 51.24C5.17 51.63 5.13 52.01 5.1 52.4C4.69 57.24 7.88 62 11.8 62C14.18 62 16.81 60.26 19.08 55.75C19.19 55.54 19.31 55.33 19.42 55.11C20.37 54.69 21.12 54.06 21.53 53.22C22.29 51.68 23.12 50.17 24 48.69C25.81 48.14 27.32 47 28.17 45.47C31.86 38.73 37.26 33.08 43.82 29.09C44.94 28.4 45.82 27.35 46.39 26.1C48.05 25.09 49.75 24.15 51.49 23.29C52.59 22.74 53.36 21.62 53.73 20.17C54.4 19.8 55.08 19.44 55.76 19.1C67.14 13.38 60.85 5.07 53.41 5.07ZM22.45 7.5C23.13 8.13 24.67 10.96 25.82 16.74C26.65 20.86 26.78 23.93 26.66 25.63C21.91 21.4 16.81 20.89 13.32 20.89C12.21 20.89 11.2 20.95 10.31 21C9.67 21.03 9.1 21.07 8.64 21.07C10.39 16.2 17.69 8.98 22.45 7.5ZM11.8 60C10.59 60 9.63 59.23 9.04 58.59C7.67 57.1 6.93 54.84 7.08 52.67C7.47 52.89 7.87 53.1 8.3 53.28C9.43 53.76 10.57 54.25 11.7 54.74C13.48 55.48 15.27 55.77 16.84 55.69C15.28 58.47 13.51 60 11.8 60ZM18.21 49.31C17.73 50.25 16.25 50.85 14.45 50.85C13.3 50.84 12.16 50.62 11.09 50.21L9.45 49.56L7.8 48.9C6.13 48.26 4.8 47.02 4.26 45.58C3.98 44.86 3.78 43.75 4.39 42.57C4.52 42.33 4.66 42.08 4.8 41.84C5.58 42.99 6.65 43.89 7.95 44.37C11.26 45.73 14.58 47.08 17.89 48.43C18.12 48.52 18.35 48.59 18.57 48.66C18.45 48.88 18.33 49.09 18.21 49.31ZM41.35 24.73C34.53 28.79 28.82 34.49 24.75 41.31C23.82 42.86 21.83 43.86 19.69 43.86C18.82 43.86 17.95 43.7 17.11 43.38L7.76 39.51L7.71 39.49L7.68 39.48L7.65 39.47C6.53 39.04 5.65 38.07 5.19 36.74C4.51 34.78 4.85 32.35 6.1 30.24C7.16 28.47 8.29 26.74 9.51 25.07C13.24 25.44 21.13 24.15 27.87 30.89C30.4 33.42 29.52 21.07 27.08 13.33C26.67 11.78 26.19 10.32 25.67 9.09C27.16 8.03 28.69 7.03 30.26 6.1C31.64 5.28 33.15 4.84 34.61 4.84C36.93 4.84 38.85 5.94 39.5 7.65L39.51 7.67L39.52 7.7L40.82 10.84L43.42 17.1C44.65 20.36 43.33 23.53 41.35 24.73ZM49.35 18.2C48.45 18.67 47.55 19.16 46.67 19.67C46.57 19.34 46.45 19.01 46.31 18.7L45.38 16.68C45.34 16.58 45.31 16.47 45.27 16.37L41.36 6.94C41.16 6.43 40.89 5.95 40.55 5.52C41.23 5.14 41.91 4.75 42.6 4.39C43.1 4.13 43.66 4 44.22 4C46.17 4 48.06 5.52 48.94 7.82L50.24 11.05C51.5 14.34 50.78 17.45 49.35 18.2ZM54.87 17.31C54.56 17.46 54.26 17.63 53.96 17.79C53.92 16.43 53.61 14.95 53 13.47L52.78 12.95C52.65 12.06 52.43 11.18 52.1 10.34L50.89 7.31C51.46 7.24 52.02 7.17 52.61 7.12C52.87 7.09 53.14 7.08 53.41 7.08C56.47 7.08 59.39 8.88 59.91 11.09C60.41 13.18 58.57 15.45 54.87 17.31Z" fill="#A98764" fill-opacity="1.000000" fill-rule="nonzero"/>
	</g>
</svg>
