<svg width="50.000000" height="50.000000" viewBox="0 0 50 50" fill="none" xmlns="http://www.w3.org/2000/svg" xmlns:xlink="http://www.w3.org/1999/xlink">
	<desc>
			Created with Pixso.
	</desc>
	<defs>
		<clipPath id="clip20_238">
			<rect id="cross" rx="0.000000" width="31.000000" height="31.000000" transform="translate(9.500000 9.500000)" fill="white" fill-opacity="0"/>
		</clipPath>
	</defs>
	<circle id="Ellipse 4" cx="25.000000" cy="25.000000" r="24.500000" stroke="#C8A077" stroke-opacity="1.000000" stroke-width="1.000000"/>
	<rect id="cross" rx="0.000000" width="31.000000" height="31.000000" transform="translate(9.500000 9.500000)" fill="#FFFFFF" fill-opacity="0"/>
	<g clip-path="url(#clip20_238)">
		<path id="Vector" d="M16.76 13.84L25 22.07L33.19 13.88C33.37 13.69 33.59 13.53 33.83 13.43C34.07 13.32 34.33 13.26 34.6 13.26C35.16 13.26 35.7 13.49 36.1 13.89C36.5 14.29 36.73 14.83 36.73 15.39C36.73 15.66 36.68 15.92 36.59 16.16C36.49 16.4 36.34 16.62 36.15 16.8L27.85 25L36.15 33.29C36.5 33.64 36.71 34.1 36.73 34.59C36.73 35.16 36.5 35.7 36.1 36.1C35.7 36.5 35.16 36.73 34.6 36.73C34.32 36.74 34.05 36.69 33.8 36.6C33.55 36.5 33.32 36.35 33.12 36.15L25 27.92L16.78 36.13C16.6 36.32 16.39 36.47 16.15 36.57C15.91 36.67 15.65 36.73 15.4 36.73C14.83 36.73 14.29 36.5 13.89 36.1C13.49 35.7 13.26 35.16 13.26 34.59C13.26 34.33 13.31 34.07 13.4 33.83C13.5 33.59 13.65 33.37 13.84 33.19L22.14 25L13.84 16.7C13.49 16.35 13.28 15.89 13.26 15.39C13.26 14.83 13.49 14.29 13.89 13.89C14.29 13.49 14.83 13.26 15.4 13.26C15.91 13.27 16.4 13.48 16.76 13.84Z" fill="#C8A077" fill-opacity="1.000000" fill-rule="nonzero"/>
	</g>
</svg>
