<svg width="54.000000" height="54.000000" viewBox="0 0 54 54" fill="none" xmlns="http://www.w3.org/2000/svg" xmlns:xlink="http://www.w3.org/1999/xlink">
	<desc>
			Created with Pixso.
	</desc>
	<defs>
		<clipPath id="clip3_53">
			<rect id="logo" rx="0.000000" width="53.000000" height="53.000000" transform="translate(0.500000 0.500000)" fill="white" fill-opacity="0"/>
		</clipPath>
	</defs>
	<rect id="logo" rx="0.000000" width="53.000000" height="53.000000" transform="translate(0.500000 0.500000)" fill="#FFFFFF" fill-opacity="0"/>
	<g clip-path="url(#clip3_53)">
		<path id="Vector" d="M22.12 9.66C22.17 9.92 22.04 10.13 21.61 10.35C20.74 10 19.79 9.87 18.86 9.96C17.78 10.05 16.88 10.39 17 11.12C17.17 11.85 18.2 12.29 20.05 12.11C24.57 11.73 24.52 8.67 31.14 8.07C36.3 7.6 39.18 9.19 39.57 11.12C39.87 12.63 38.62 14.09 34.88 14.39C31.57 14.69 29.64 13.79 29.47 12.89C29.38 12.42 29.63 11.73 31.23 11.55C31.4 12.29 32.3 13.06 34.45 12.84C36.01 12.71 37.29 12.15 37.12 11.3C36.95 10.4 35.31 9.88 32.73 10.1C27.49 10.57 26.2 13.45 21.73 13.84C18.56 14.13 15.98 12.97 15.63 11.25C15.51 10.61 15.51 9.1 18.86 8.8C20.58 8.67 21.95 8.97 22.12 9.66ZM28.4 17.7C23.68 17.73 18.97 17.29 14.34 16.36C10.52 15.42 8.5 14.39 8.5 13.06C8.5 12.5 8.76 12.03 9.53 11.47C7.12 12.41 5.84 13.19 5.84 14.39C5.96 15.72 8.11 17.05 12.5 18.09C17.67 19.24 22.97 19.78 28.27 19.67C33.57 19.78 38.87 19.25 44.04 18.09C48.43 17.05 50.53 15.68 50.53 14.39C50.53 13.44 49.58 12.53 47.86 11.86C48.06 11.98 48.23 12.15 48.35 12.35C48.47 12.56 48.54 12.78 48.55 13.02C48.55 14.35 46.58 15.43 42.58 16.33C37.92 17.29 33.16 17.75 28.4 17.7L28.4 17.7Z" fill="#E2D9C8" fill-opacity="1.000000" fill-rule="nonzero"/>
		<path id="Vector" d="M5.36 27.63C3.97 29.34 3.27 31.52 3.39 33.73C3.46 34.74 3.74 35.72 4.22 36.61C4.71 37.5 5.37 38.27 6.18 38.89C6.97 39.52 7.88 39.96 8.87 40.2C9.85 40.43 10.87 40.43 11.85 40.22C12.72 40.01 13.56 39.73 14.38 39.4C12.68 39.4 11.04 38.79 9.74 37.68C8.95 37.13 8.28 36.42 7.78 35.6C7.28 34.78 6.95 33.87 6.82 32.91C6.63 32.04 6.62 31.14 6.8 30.27C6.98 29.39 7.34 28.57 7.86 27.84C8.42 27.12 9.12 26.53 9.92 26.1C10.71 25.66 11.59 25.39 12.5 25.31C14.43 25.17 16.36 25.74 17.91 26.9C17.47 26.37 16.98 25.88 16.45 25.44C15.63 24.82 14.67 24.39 13.66 24.19C12.65 23.99 11.61 24.02 10.61 24.27C8.51 24.71 6.64 25.91 5.36 27.63ZM44.22 21.39C39.03 22.51 33.74 23.04 28.44 22.98C23.1 23.03 17.77 22.49 12.54 21.39C8.84 20.45 6.87 19.42 6.18 18.34C6.88 22.86 8.36 27.23 10.57 31.24C12.16 33.64 13.75 35.75 15.34 38.03C15.99 39.29 16.48 40.64 16.8 42.03C17.87 43.49 19.43 44.52 21.19 44.95C23.44 45.76 25.84 46.11 28.24 45.98L28.49 45.98C30.96 46.09 33.42 45.74 35.75 44.95C37.44 44.46 38.94 43.43 40 42.03L40.13 42.03C40.4 40.64 40.85 39.3 41.47 38.03C43.05 35.75 44.65 33.64 46.24 31.24C48.4 27.21 49.88 22.85 50.62 18.34C49.76 19.54 47.78 20.58 44.22 21.39Z" fill="#E2D9C8" fill-opacity="1.000000" fill-rule="nonzero"/>
	</g>
</svg>
