<svg width="44.000000" height="44.000000" viewBox="0 0 44 44" fill="none" xmlns="http://www.w3.org/2000/svg" xmlns:xlink="http://www.w3.org/1999/xlink">
	<desc>
			Created with Pixso.
	</desc>
	<defs>
		<clipPath id="clip22_706">
			<rect id="fa--repeat 1" rx="0.000000" width="21.000000" height="21.000000" transform="translate(11.500000 11.500000)" fill="white" fill-opacity="0"/>
		</clipPath>
	</defs>
	<circle id="Ellipse 1" cx="22.000000" cy="22.000000" r="21.500000" stroke="#E2D9C8" stroke-opacity="1.000000" stroke-width="1.000000"/>
	<rect id="fa--repeat 1" rx="0.000000" width="21.000000" height="21.000000" transform="translate(11.500000 11.500000)" fill="#FFFFFF" fill-opacity="0"/>
	<g clip-path="url(#clip22_706)">
		<path id="Vector" d="M33 12.83L33 19.25C33 19.49 32.9 19.71 32.72 19.89C32.54 20.07 32.33 20.16 32.08 20.16L25.66 20.16C25.26 20.16 24.98 19.97 24.82 19.59C24.65 19.22 24.72 18.89 25.02 18.6L26.99 16.62C25.58 15.32 23.91 14.66 22 14.66C21 14.66 20.05 14.85 19.15 15.24C18.25 15.63 17.47 16.15 16.81 16.81C16.15 17.47 15.63 18.25 15.24 19.15C14.86 20.05 14.66 21 14.66 22C14.66 22.99 14.86 23.94 15.24 24.84C15.63 25.74 16.15 26.52 16.81 27.18C17.47 27.84 18.25 28.36 19.15 28.75C20.05 29.14 21 29.33 22 29.33C23.13 29.33 24.21 29.08 25.22 28.58C26.23 28.09 27.08 27.39 27.78 26.48C27.85 26.38 27.96 26.33 28.11 26.31C28.25 26.31 28.37 26.35 28.47 26.43L30.43 28.41C30.52 28.49 30.56 28.59 30.57 28.71C30.57 28.82 30.54 28.93 30.46 29.03C29.42 30.29 28.16 31.26 26.68 31.96C25.2 32.65 23.64 33 22 33C20.51 33 19.08 32.7 17.73 32.12C16.37 31.54 15.2 30.76 14.22 29.77C13.23 28.79 12.45 27.62 11.87 26.26C11.29 24.91 11 23.48 11 22C11 20.51 11.29 19.08 11.87 17.73C12.45 16.37 13.23 15.2 14.22 14.22C15.2 13.23 16.37 12.45 17.73 11.87C19.08 11.29 20.51 11 22 11C23.4 11 24.76 11.26 26.07 11.79C27.38 12.32 28.55 13.07 29.57 14.03L31.43 12.18C31.71 11.89 32.04 11.82 32.44 11.98C32.81 12.15 33 12.43 33 12.83Z" fill="#E2D9C8" fill-opacity="1.000000" fill-rule="nonzero"/>
	</g>
</svg>
