<svg width="32.000000" height="32.000000" viewBox="0 0 32 32" fill="none" xmlns="http://www.w3.org/2000/svg" xmlns:xlink="http://www.w3.org/1999/xlink">
	<desc>
			Created with Pixso.
	</desc>
	<defs>
		<clipPath id="clip3_377">
			<rect id="search" rx="0.000000" width="31.000000" height="31.000000" transform="translate(0.500000 0.500000)" fill="white" fill-opacity="0"/>
		</clipPath>
	</defs>
	<rect id="search" rx="0.000000" width="31.000000" height="31.000000" transform="translate(0.500000 0.500000)" fill="#FFFFFF" fill-opacity="0"/>
	<g clip-path="url(#clip3_377)">
		<path id="Vector" d="M25.98 26.87L17.63 18.52C16.96 19.09 16.19 19.53 15.33 19.84C14.46 20.15 13.59 20.3 12.71 20.3C10.58 20.3 8.77 19.56 7.29 18.09C5.81 16.61 5.07 14.8 5.07 12.67C5.07 10.53 5.81 8.72 7.29 7.24C8.77 5.76 10.57 5.02 12.71 5.02C14.84 5.02 16.65 5.76 18.13 7.24C19.61 8.72 20.35 10.53 20.35 12.66C20.35 13.59 20.19 14.48 19.86 15.35C19.53 16.22 19.1 16.96 18.57 17.58L26.92 25.92L25.98 26.87ZM12.71 18.97C14.48 18.97 15.98 18.36 17.19 17.14C18.41 15.92 19.02 14.43 19.02 12.66C19.02 10.89 18.41 9.4 17.19 8.18C15.98 6.96 14.48 6.35 12.71 6.35C10.94 6.35 9.45 6.96 8.23 8.18C7.01 9.4 6.4 10.89 6.41 12.66C6.41 14.43 7.02 15.92 8.23 17.14C9.45 18.36 10.94 18.97 12.71 18.97L12.71 18.97Z" fill="#C8A077" fill-opacity="1.000000" fill-rule="nonzero"/>
	</g>
</svg>
