<svg width="44.000000" height="44.000000" viewBox="0 0 44 44" fill="none" xmlns="http://www.w3.org/2000/svg" xmlns:xlink="http://www.w3.org/1999/xlink">
	<desc>
			Created with Pixso.
	</desc>
	<defs>
		<clipPath id="clip33_6">
			<rect id="basil--sort-outline 1" rx="0.000000" width="34.000000" height="34.000000" transform="translate(5.000000 5.000000)" fill="white" fill-opacity="0"/>
		</clipPath>
	</defs>
	<circle id="Ellipse 1" cx="22.000000" cy="22.000000" r="21.500000" stroke="#C8A077" stroke-opacity="1.000000" stroke-width="1.000000"/>
	<rect id="basil--sort-outline 1" rx="0.000000" width="34.000000" height="34.000000" transform="translate(5.000000 5.000000)" fill="#FFFFFF" fill-opacity="0"/>
	<g clip-path="url(#clip33_6)">
		<path id="Vector" d="M24.14 15.48C24.34 15.68 24.62 15.8 24.91 15.8C25.2 15.8 25.48 15.68 25.68 15.48L26.73 14.43L26.73 29.29C26.73 29.58 26.85 29.85 27.05 30.06C27.26 30.27 27.54 30.38 27.83 30.38C28.12 30.38 28.4 30.27 28.6 30.06C28.81 29.85 28.92 29.58 28.92 29.29L28.92 14.43L29.97 15.48C30.07 15.58 30.19 15.67 30.33 15.73C30.46 15.79 30.61 15.82 30.75 15.82C30.9 15.83 31.05 15.8 31.18 15.74C31.32 15.69 31.44 15.61 31.55 15.5C31.65 15.4 31.73 15.28 31.79 15.14C31.84 15 31.87 14.86 31.87 14.71C31.86 14.56 31.83 14.42 31.77 14.29C31.71 14.15 31.63 14.03 31.52 13.93L28.6 11.01C28.4 10.81 28.12 10.69 27.83 10.69C27.54 10.69 27.26 10.81 27.06 11.01L24.14 13.93C23.93 14.14 23.82 14.41 23.82 14.7C23.82 14.99 23.93 15.27 24.14 15.48ZM17.26 29.56L18.31 28.51C18.41 28.41 18.53 28.32 18.66 28.26C18.79 28.2 18.94 28.17 19.09 28.17C19.23 28.16 19.38 28.19 19.52 28.25C19.65 28.3 19.78 28.38 19.88 28.49C19.98 28.59 20.06 28.71 20.12 28.85C20.17 28.99 20.2 29.13 20.2 29.28C20.2 29.43 20.16 29.57 20.1 29.7C20.04 29.84 19.96 29.96 19.85 30.06L16.93 32.98C16.73 33.18 16.45 33.3 16.16 33.3C15.87 33.3 15.59 33.18 15.39 32.98L12.47 30.06C12.36 29.96 12.28 29.84 12.22 29.7C12.16 29.57 12.13 29.43 12.12 29.28C12.12 29.13 12.15 28.99 12.2 28.85C12.26 28.71 12.34 28.59 12.44 28.49C12.55 28.38 12.67 28.3 12.81 28.25C12.94 28.19 13.09 28.16 13.24 28.17C13.38 28.17 13.53 28.2 13.66 28.26C13.8 28.32 13.92 28.41 14.02 28.51L15.07 29.56L15.07 14.7C15.07 14.41 15.18 14.14 15.39 13.93C15.59 13.72 15.87 13.61 16.16 13.61C16.45 13.61 16.73 13.72 16.94 13.93C17.14 14.14 17.26 14.41 17.26 14.7L17.26 29.56Z" fill="#C8A077" fill-opacity="1.000000" fill-rule="nonzero"/>
	</g>
</svg>
