<svg width="44.000000" height="44.000000" viewBox="0 0 44 44" fill="none" xmlns="http://www.w3.org/2000/svg" xmlns:xlink="http://www.w3.org/1999/xlink">
	<desc>
			Created with Pixso.
	</desc>
	<defs/>
	<circle id="Ellipse 1" cx="22.000000" cy="22.000000" r="21.500000" stroke="#E2D9C8" stroke-opacity="1.000000" stroke-width="1.000000"/>
	<path id="Vector" d="M21.99 22C20.53 22 19.27 21.47 18.23 20.43C17.18 19.38 16.66 18.13 16.66 16.66C16.66 15.2 17.18 13.94 18.23 12.9C19.27 11.85 20.53 11.33 21.99 11.33C23.46 11.33 24.72 11.85 25.76 12.9C26.81 13.94 27.33 15.2 27.33 16.66C27.33 18.13 26.81 19.38 25.76 20.43C24.72 21.47 23.46 22 21.99 22ZM11.33 32.66L11.33 28.93C11.33 28.17 11.52 27.48 11.91 26.85C12.3 26.21 12.82 25.73 13.46 25.4C14.84 24.71 16.24 24.19 17.66 23.85C19.08 23.5 20.53 23.33 21.99 23.33C23.46 23.33 24.91 23.5 26.33 23.85C27.75 24.19 29.15 24.71 30.53 25.4C31.17 25.73 31.69 26.21 32.08 26.85C32.47 27.48 32.66 28.17 32.66 28.93L32.66 32.66L11.33 32.66Z" fill="#E2D9C8" fill-opacity="1.000000" fill-rule="nonzero"/>
</svg>
